<svg version="1.1" id="Layer_1" xmlns="http://www.w3.org/2000/svg" xmlns:xlink="http://www.w3.org/1999/xlink" x="0px" y="0px"
	 width="100%" viewBox="0 0 567 350" enable-background="new 0 0 567 350" xml:space="preserve">
<path fill="#020202" opacity="1.000000" stroke="none" 
	d="
M1.000000,346.000000 
	C1.000000,231.039352 1.000000,116.078720 1.000000,1.059038 
	C189.895935,1.059038 378.791901,1.059038 568.000000,1.059038 
	C568.000000,115.689804 568.000000,230.379883 567.555481,345.381378 
	C566.778015,345.678833 566.445129,345.652649 566.112183,345.652618 
	C379.052338,345.635834 191.992493,345.620056 4.932645,345.622101 
	C3.621762,345.622131 2.310881,345.868591 1.000000,346.000000 
M447.835419,39.663883 
	C443.383148,39.086338 438.936157,38.057636 434.477722,38.005234 
	C407.655823,37.689960 380.831360,37.563347 354.007477,37.484875 
	C351.204926,37.476677 348.369995,38.046719 345.601715,38.604603 
	C331.362091,41.474277 322.912659,53.355167 325.492798,67.628876 
	C326.727844,74.461327 328.948608,81.134239 330.984100,87.799660 
	C335.867310,103.790306 336.064850,119.726921 329.282104,135.102570 
	C324.805054,145.251511 319.100037,154.860519 313.907898,164.691742 
	C307.927734,176.015060 308.645386,183.904099 316.730255,193.616165 
	C324.924316,203.459381 328.667053,214.344284 324.403992,226.974152 
	C322.663361,232.131012 319.859528,236.600922 314.355743,238.665329 
	C305.746735,241.894455 297.228516,239.048050 291.947662,229.733734 
	C285.494019,218.350876 279.589905,206.609787 274.207489,194.680969 
	C269.851166,185.026169 266.093536,175.022949 263.030731,164.884140 
	C259.748138,154.017853 255.270996,143.965210 247.384079,135.775436 
	C242.552155,130.757935 237.193649,126.233177 231.934204,121.644630 
	C219.933884,111.175140 210.929428,98.920578 208.871506,82.654259 
	C207.850571,74.584511 207.648621,66.407310 206.528976,58.354805 
	C204.884048,46.524609 197.200729,39.068325 185.393417,38.013302 
	C178.117157,37.363148 170.743652,37.318771 163.437241,37.603546 
	C152.999374,38.010376 145.555603,43.167912 141.504944,52.964958 
	C140.046631,56.492054 138.488068,59.977943 136.957703,63.474960 
	C122.838005,95.739632 108.811806,128.045700 94.559967,160.251892 
	C83.939590,184.251755 73.034836,208.125839 62.236969,232.047012 
	C59.230919,238.706497 55.601662,245.143677 53.232281,252.018494 
	C49.059483,264.125977 55.076111,273.557281 67.845848,273.742645 
	C77.765549,273.886627 83.923904,280.786926 82.512794,292.254852 
	C82.027328,296.200195 81.634796,300.253113 81.997131,304.183411 
	C82.499969,309.637634 85.925331,313.278381 91.093002,314.960663 
	C96.020714,316.564789 100.030029,314.059509 102.131561,310.210663 
	C104.765892,305.386017 106.842789,299.973297 107.767921,294.575775 
	C108.769005,288.735046 108.097534,282.617310 108.275932,276.623962 
	C108.707306,262.130920 111.823524,248.228668 118.285202,235.232590 
	C124.593277,222.545425 136.397629,218.012589 149.709015,223.068497 
	C154.184662,224.768433 158.377045,227.223984 162.672043,229.387482 
	C169.900467,233.028671 177.011276,233.268539 183.989578,228.768036 
	C188.876999,225.615982 193.608673,222.189240 198.666962,219.341797 
	C211.726486,211.990250 227.059280,215.888535 233.742645,228.300171 
	C235.690918,231.918274 236.813354,235.998520 238.158951,239.920258 
	C241.497345,249.649994 244.279434,259.600800 248.156616,269.107330 
	C252.385727,279.476776 259.373779,282.059692 269.758423,278.306488 
	C270.693756,277.968475 271.726959,277.847748 272.601318,277.403107 
	C279.131958,274.082336 284.718506,275.848602 290.064697,280.233215 
	C295.075439,284.342743 300.097473,288.506744 305.508606,292.043915 
	C313.846588,297.494354 321.416656,296.760895 328.736389,290.072296 
	C333.400665,285.810150 337.602081,281.045166 342.191589,276.696198 
	C344.952881,274.079651 347.877655,271.546295 351.058563,269.483917 
	C355.245575,266.769165 359.732819,267.456421 363.321350,270.934662 
	C368.362183,275.820496 370.030090,281.854980 369.143158,288.722565 
	C368.717346,292.019897 368.256348,295.323669 368.077972,298.638885 
	C367.890350,302.126923 369.089142,305.236206 372.971527,305.557068 
	C377.404480,305.923462 378.284485,302.291656 378.788055,298.901703 
	C378.973694,297.652008 378.481506,296.291016 378.243774,294.990784 
	C376.569733,285.835144 377.486389,277.163269 382.552063,269.080261 
	C388.602051,259.426605 388.980865,249.167435 385.998810,238.335297 
	C383.711182,230.025528 381.783661,221.556274 380.534729,213.035019 
	C378.664917,200.277832 384.452789,189.362930 395.253296,185.336060 
	C403.228821,182.362457 411.324707,184.172089 419.181335,186.814575 
	C427.772430,189.704132 431.871552,195.284256 431.929779,204.299698 
	C431.952362,207.794724 431.668243,211.318253 432.017700,214.778915 
	C432.667175,221.210220 437.694977,225.930817 443.440247,225.936218 
	C448.939270,225.941391 453.495453,221.358459 454.255676,214.882874 
	C454.546234,212.407761 454.811127,209.873932 454.609955,207.405823 
	C453.291626,191.233490 460.510956,179.779068 473.714996,171.151199 
	C491.635315,159.441574 504.985748,144.192200 508.447357,122.243256 
	C511.936279,100.121284 507.544922,79.851982 492.482269,62.703457 
	C480.888855,49.504597 465.612610,42.990993 447.835419,39.663883 
z"/>
<path fill="#F9F9F9" opacity="1.000000" stroke="none" 
	d="
M1.000000,346.499878 
	C2.310881,345.868591 3.621762,345.622131 4.932645,345.622101 
	C191.992493,345.620056 379.052338,345.635834 566.112183,345.652618 
	C566.445129,345.652649 566.778015,345.678833 567.555481,345.846375 
	C568.000000,347.665222 568.000000,349.330444 568.000000,350.996765 
	C379.000000,350.997833 190.000000,350.997833 1.000000,350.997131 
	C1.000000,349.664185 1.000000,348.331940 1.000000,346.499878 
z"/>
<path fill="#FCFCFC" opacity="1.000000" stroke="none" 
	d="
M448.257996,39.745041 
	C465.612610,42.990993 480.888855,49.504597 492.482269,62.703457 
	C507.544922,79.851982 511.936279,100.121284 508.447357,122.243256 
	C504.985748,144.192200 491.635315,159.441574 473.714996,171.151199 
	C460.510956,179.779068 453.291626,191.233490 454.609955,207.405823 
	C454.811127,209.873932 454.546234,212.407761 454.255676,214.882874 
	C453.495453,221.358459 448.939270,225.941391 443.440247,225.936218 
	C437.694977,225.930817 432.667175,221.210220 432.017700,214.778915 
	C431.668243,211.318253 431.952362,207.794724 431.929779,204.299698 
	C431.871552,195.284256 427.772430,189.704132 419.181335,186.814575 
	C411.324707,184.172089 403.228821,182.362457 395.253296,185.336060 
	C384.452789,189.362930 378.664917,200.277832 380.534729,213.035019 
	C381.783661,221.556274 383.711182,230.025528 385.998810,238.335297 
	C388.980865,249.167435 388.602051,259.426605 382.552063,269.080261 
	C377.486389,277.163269 376.569733,285.835144 378.243774,294.990784 
	C378.481506,296.291016 378.973694,297.652008 378.788055,298.901703 
	C378.284485,302.291656 377.404480,305.923462 372.971527,305.557068 
	C369.089142,305.236206 367.890350,302.126923 368.077972,298.638885 
	C368.256348,295.323669 368.717346,292.019897 369.143158,288.722565 
	C370.030090,281.854980 368.362183,275.820496 363.321350,270.934662 
	C359.732819,267.456421 355.245575,266.769165 351.058563,269.483917 
	C347.877655,271.546295 344.952881,274.079651 342.191589,276.696198 
	C337.602081,281.045166 333.400665,285.810150 328.736389,290.072296 
	C321.416656,296.760895 313.846588,297.494354 305.508606,292.043915 
	C300.097473,288.506744 295.075439,284.342743 290.064697,280.233215 
	C284.718506,275.848602 279.131958,274.082336 272.601318,277.403107 
	C271.726959,277.847748 270.693756,277.968475 269.758423,278.306488 
	C259.373779,282.059692 252.385727,279.476776 248.156616,269.107330 
	C244.279434,259.600800 241.497345,249.649994 238.158951,239.920258 
	C236.813354,235.998520 235.690918,231.918274 233.742645,228.300171 
	C227.059280,215.888535 211.726486,211.990250 198.666962,219.341797 
	C193.608673,222.189240 188.876999,225.615982 183.989578,228.768036 
	C177.011276,233.268539 169.900467,233.028671 162.672043,229.387482 
	C158.377045,227.223984 154.184662,224.768433 149.709015,223.068497 
	C136.397629,218.012589 124.593277,222.545425 118.285202,235.232590 
	C111.823524,248.228668 108.707306,262.130920 108.275932,276.623962 
	C108.097534,282.617310 108.769005,288.735046 107.767921,294.575775 
	C106.842789,299.973297 104.765892,305.386017 102.131561,310.210663 
	C100.030029,314.059509 96.020714,316.564789 91.093002,314.960663 
	C85.925331,313.278381 82.499969,309.637634 81.997131,304.183411 
	C81.634796,300.253113 82.027328,296.200195 82.512794,292.254852 
	C83.923904,280.786926 77.765549,273.886627 67.845848,273.742645 
	C55.076111,273.557281 49.059483,264.125977 53.232281,252.018494 
	C55.601662,245.143677 59.230919,238.706497 62.236969,232.047012 
	C73.034836,208.125839 83.939590,184.251755 94.559967,160.251892 
	C108.811806,128.045700 122.838005,95.739632 136.957703,63.474960 
	C138.488068,59.977943 140.046631,56.492054 141.504944,52.964958 
	C145.555603,43.167912 152.999374,38.010376 163.437241,37.603546 
	C170.743652,37.318771 178.117157,37.363148 185.393417,38.013302 
	C197.200729,39.068325 204.884048,46.524609 206.528976,58.354805 
	C207.648621,66.407310 207.850571,74.584511 208.871506,82.654259 
	C210.929428,98.920578 219.933884,111.175140 231.934204,121.644630 
	C237.193649,126.233177 242.552155,130.757935 247.384079,135.775436 
	C255.270996,143.965210 259.748138,154.017853 263.030731,164.884140 
	C266.093536,175.022949 269.851166,185.026169 274.207489,194.680969 
	C279.589905,206.609787 285.494019,218.350876 291.947662,229.733734 
	C297.228516,239.048050 305.746735,241.894455 314.355743,238.665329 
	C319.859528,236.600922 322.663361,232.131012 324.403992,226.974152 
	C328.667053,214.344284 324.924316,203.459381 316.730255,193.616165 
	C308.645386,183.904099 307.927734,176.015060 313.907898,164.691742 
	C319.100037,154.860519 324.805054,145.251511 329.282104,135.102570 
	C336.064850,119.726921 335.867310,103.790306 330.984100,87.799660 
	C328.948608,81.134239 326.727844,74.461327 325.492798,67.628876 
	C322.912659,53.355167 331.362091,41.474277 345.601715,38.604603 
	C348.369995,38.046719 351.204926,37.476677 354.007477,37.484875 
	C380.831360,37.563347 407.655823,37.689960 434.477722,38.005234 
	C438.936157,38.057636 443.383148,39.086338 448.257996,39.745041 
M383.238098,135.972473 
	C385.519043,139.661270 389.022400,141.702179 393.159515,141.682510 
	C406.105194,141.620987 419.156433,142.132111 431.965790,140.665695 
	C447.047913,138.939102 458.059235,125.020874 458.105164,110.048607 
	C458.152130,94.720428 448.449005,82.623619 432.477051,80.742096 
	C419.859955,79.255783 406.950012,79.385002 394.224243,79.971291 
	C384.319855,80.427597 381.364441,84.607979 381.203125,95.124001 
	C381.042419,105.599983 381.036926,116.082596 381.236267,126.557114 
	C381.291687,129.469803 382.316040,132.364075 383.238098,135.972473 
M207.089584,167.718384 
	C205.976013,164.009232 205.563324,159.852798 203.559036,156.712067 
	C201.394669,153.320465 197.954987,150.603912 194.695084,148.079041 
	C187.808319,142.745026 184.260834,136.141174 183.885864,127.238121 
	C183.581268,120.006340 182.166107,112.743401 180.464859,105.681870 
	C179.637192,102.246429 178.266266,96.996826 173.692856,97.801109 
	C171.038681,98.267883 168.288727,102.351418 166.948135,105.406868 
	C161.095917,118.745201 155.737518,132.300400 150.213760,145.782562 
	C147.960434,151.282425 145.288483,156.663254 143.619858,162.337280 
	C141.383896,169.940430 142.950226,172.721634 149.338882,176.941544 
	C153.187851,179.483887 156.881363,182.336899 160.309937,185.422333 
	C165.161591,189.788422 168.780045,190.289169 173.160965,185.516708 
	C179.514877,178.594925 187.061554,175.073990 196.423401,174.773697 
	C200.873917,174.630951 204.873230,172.925827 207.089584,167.718384 
z"/>
<path fill="#040404" opacity="1.000000" stroke="none" 
	d="
M383.066986,135.619629 
	C382.316040,132.364075 381.291687,129.469803 381.236267,126.557114 
	C381.036926,116.082596 381.042419,105.599983 381.203125,95.124001 
	C381.364441,84.607979 384.319855,80.427597 394.224243,79.971291 
	C406.950012,79.385002 419.859955,79.255783 432.477051,80.742096 
	C448.449005,82.623619 458.152130,94.720428 458.105164,110.048607 
	C458.059235,125.020874 447.047913,138.939102 431.965790,140.665695 
	C419.156433,142.132111 406.105194,141.620987 393.159515,141.682510 
	C389.022400,141.702179 385.519043,139.661270 383.066986,135.619629 
z"/>
<path fill="#050505" opacity="1.000000" stroke="none" 
	d="
M207.016525,168.076233 
	C204.873230,172.925827 200.873917,174.630951 196.423401,174.773697 
	C187.061554,175.073990 179.514877,178.594925 173.160965,185.516708 
	C168.780045,190.289169 165.161591,189.788422 160.309937,185.422333 
	C156.881363,182.336899 153.187851,179.483887 149.338882,176.941544 
	C142.950226,172.721634 141.383896,169.940430 143.619858,162.337280 
	C145.288483,156.663254 147.960434,151.282425 150.213760,145.782562 
	C155.737518,132.300400 161.095917,118.745201 166.948135,105.406868 
	C168.288727,102.351418 171.038681,98.267883 173.692856,97.801109 
	C178.266266,96.996826 179.637192,102.246429 180.464859,105.681870 
	C182.166107,112.743401 183.581268,120.006340 183.885864,127.238121 
	C184.260834,136.141174 187.808319,142.745026 194.695084,148.079041 
	C197.954987,150.603912 201.394669,153.320465 203.559036,156.712067 
	C205.563324,159.852798 205.976013,164.009232 207.016525,168.076233 
z"/>
</svg>